# xmcd
#
# Track frame offsets: 
#        150
#        16177
#        35284
#        54115
#        68735
#        86682
#        112322
#        135978
#        152507
#        170393
#
# Disc length: 2512 seconds
#
# Revision: 0
# Processed by: cddbd v1.5.2PL0 Copyright (c) Steve Scherf et al.
# Submitted via: ExactAudioCopyFreeDBPlugin 1.0
#
DISCID=7109ce0a
DTITLE=Trudy Lynn - Blues Keep Knockin'
DYEAR=2018
DGENRE=Blues
TTITLE0=Blues Ain't Nothin'
TTITLE1=That's Alright
TTITLE2=Blues keep Knocking
TTITLE3=One Monkey Don't Stop No Show
TTITLE4=Never Been To Spain
TTITLE5=I Sing The Blues
TTITLE6=Pitiful
TTITLE7=When I Been Drinkin'
TTITLE8=It Won't Be Long
TTITLE9=Would It Make Any Difference To You
EXTD=
EXTT0=
EXTT1=
EXTT2=
EXTT3=
EXTT4=
EXTT5=
EXTT6=
EXTT7=
EXTT8=
EXTT9=
PLAYORDER=
